<svg width="144" xmlns="http://www.w3.org/2000/svg" id="Layer_1" data-name="Layer 1" viewBox="0 0 841.89 595.28">
  <defs>
    <style>
      .cls-1 {
        fill: #fff;
      }

      .cls-2 {
        fill: #fbfdfc;
      }

      .cls-3 {
        fill: #e97d25;
      }
    </style>
  </defs>
  <g>
    <path class="cls-1" d="M208.01,258.99c-5.85-5.7-13.91-8.55-24.19-8.55h-41.72v94.39h22.49v-31.23h19.23c10.28,0,18.34-2.82,24.19-8.46,5.84-5.65,8.77-13.33,8.77-23.04s-2.93-17.42-8.77-23.11Zm-26.59,35.04h-16.83v-24.01h16.83c8.2,0,12.31,4.02,12.31,12.07s-4.11,11.94-12.31,11.94Z"/>
    <path class="cls-1" d="M296.42,309.16c6.02-2.03,10.55-5.5,13.57-10.41,3.02-4.9,4.53-10.64,4.53-17.21,0-9.62-2.92-17.21-8.77-22.76-5.84-5.55-13.9-8.34-24.18-8.34h-41.72v94.39h22.49v-32.06h10.6l18.81,32.06h26.17l-21.5-35.67Zm-17.54-15.96h-16.55v-23.18h16.83c8.2,0,12.29,3.83,12.29,11.52s-4.19,11.66-12.58,11.66Z"/>
    <path class="cls-1" d="M339.69,250.44v94.39h22.49v-94.39h-22.49Z"/>
    <path class="cls-1" d="M458.21,250.44l-19.23,57.74h-.28l-20.79-57.74h-29.85v94.39h21.93v-54.97h.28l19.1,54.97h16.27l19.79-54.97h.28v54.97h22.5v-94.39h-29.99Z"/>
  </g>
  <rect class="cls-1" x="512.28" y="250.14" width="66.3" height="20.78"/>
  <rect class="cls-1" x="512.28" y="287.25" width="66.3" height="20.78"/>
  <rect class="cls-1" x="512.28" y="324.35" width="66.3" height="20.78"/>
  <polygon class="cls-2" points="602.32 250.44 638.69 344.83 661.94 344.83 628.05 250.44 602.32 250.44"/>
  <polygon class="cls-3" points="674.8 250.44 654.52 306.79 678.27 306.79 699.79 250.44 674.8 250.44"/>
<script xmlns=""/>
</svg>